<svg width="122" height="74" viewBox="0 0 122 74" fill="none" xmlns="http://www.w3.org/2000/svg">
<rect x="1" y="1" width="120" height="72" rx="4" stroke="#AFAFAF"/>
<rect x="9" y="47.667" width="33.3333" height="17.3333" rx="2" fill="#D8D8D8"/>
<path d="M31.7913 60C31.9066 60 32 59.9066 32 59.7913V59.7913C32 59.7323 31.975 59.676 31.9312 59.6364L29.4713 57.4153C29.2762 57.2391 28.9805 57.2356 28.7813 57.4071L27.7484 58.2959C27.5616 58.4567 27.2877 58.4648 27.0917 58.3153L24.3844 56.2506C24.1919 56.1038 23.9236 56.1087 23.7366 56.2626L20.1644 59.2011C20.0603 59.2868 20 59.4145 20 59.5492V59.5492C20 59.7982 20.2018 60 20.4508 60H28.6725H31.7913Z" fill="#9C9A9A"/>
<path d="M29.492 54.8727C29.492 55.5592 28.9347 56.1155 28.247 56.1155C27.5592 56.1155 27.002 55.5592 27.002 54.8727C27.002 54.1862 27.5592 53.6299 28.247 53.6299C28.9347 53.6299 29.492 54.1862 29.492 54.8727Z" fill="#9C9A9A"/>
<path opacity="0.1" d="M29.492 54.8727C29.492 55.5592 28.9347 56.1155 28.247 56.1155C27.5592 56.1155 27.002 55.5592 27.002 54.8727C27.002 54.1862 27.5592 53.6299 28.247 53.6299C28.9347 53.6299 29.492 54.1862 29.492 54.8727Z" fill="#9C9A9A"/>
<path d="M31.4783 60H20.5217C20.2336 60 20 59.7664 20 59.4783V52.5217C20 52.2336 20.2336 52 20.5217 52H31.4783C31.7664 52 32 52.2336 32 52.5217V59.4783C32 59.7664 31.7664 60 31.4783 60Z" stroke="#9C9A9A" stroke-width="0.521739" stroke-linecap="round"/>
<rect x="9" y="9" width="33.3333" height="36.6667" rx="2" fill="#D8D8D8"/>
<path d="M31.7913 31C31.9066 31 32 30.9066 32 30.7913V30.7913C32 30.7323 31.975 30.676 31.9312 30.6364L29.4713 28.4153C29.2762 28.2391 28.9805 28.2356 28.7813 28.4071L27.7484 29.2959C27.5616 29.4567 27.2877 29.4648 27.0917 29.3153L24.3844 27.2506C24.1919 27.1038 23.9236 27.1087 23.7366 27.2626L20.1644 30.2011C20.0603 30.2868 20 30.4145 20 30.5492V30.5492C20 30.7982 20.2018 31 20.4508 31H28.6725H31.7913Z" fill="#9C9A9A"/>
<path d="M29.492 25.8727C29.492 26.5592 28.9347 27.1155 28.247 27.1155C27.5592 27.1155 27.002 26.5592 27.002 25.8727C27.002 25.1862 27.5592 24.6299 28.247 24.6299C28.9347 24.6299 29.492 25.1862 29.492 25.8727Z" fill="#9C9A9A"/>
<path opacity="0.1" d="M29.492 25.8727C29.492 26.5592 28.9347 27.1155 28.247 27.1155C27.5592 27.1155 27.002 26.5592 27.002 25.8727C27.002 25.1862 27.5592 24.6299 28.247 24.6299C28.9347 24.6299 29.492 25.1862 29.492 25.8727Z" fill="#9C9A9A"/>
<path d="M31.4783 31H20.5217C20.2336 31 20 30.7664 20 30.4783V23.5217C20 23.2336 20.2336 23 20.5217 23H31.4783C31.7664 23 32 23.2336 32 23.5217V30.4783C32 30.7664 31.7664 31 31.4783 31Z" stroke="#9C9A9A" stroke-width="0.521739" stroke-linecap="round"/>
<rect x="44.334" y="28.333" width="33.3333" height="17.3333" rx="2" fill="#D8D8D8"/>
<path d="M66.7913 41C66.9066 41 67 40.9066 67 40.7913V40.7913C67 40.7323 66.975 40.676 66.9312 40.6364L64.4713 38.4153C64.2762 38.2391 63.9805 38.2356 63.7813 38.4071L62.7484 39.2959C62.5616 39.4567 62.2877 39.4648 62.0917 39.3153L59.3844 37.2506C59.1919 37.1038 58.9236 37.1087 58.7366 37.2626L55.1644 40.2011C55.0603 40.2868 55 40.4145 55 40.5492V40.5492C55 40.7982 55.2018 41 55.4508 41H63.6725H66.7913Z" fill="#9C9A9A"/>
<path d="M64.492 35.8727C64.492 36.5592 63.9347 37.1155 63.247 37.1155C62.5592 37.1155 62.002 36.5592 62.002 35.8727C62.002 35.1862 62.5592 34.6299 63.247 34.6299C63.9347 34.6299 64.492 35.1862 64.492 35.8727Z" fill="#9C9A9A"/>
<path opacity="0.1" d="M64.492 35.8727C64.492 36.5592 63.9347 37.1155 63.247 37.1155C62.5592 37.1155 62.002 36.5592 62.002 35.8727C62.002 35.1862 62.5592 34.6299 63.247 34.6299C63.9347 34.6299 64.492 35.1862 64.492 35.8727Z" fill="#9C9A9A"/>
<path d="M66.4783 41H55.5217C55.2336 41 55 40.7664 55 40.4783V33.5217C55 33.2336 55.2336 33 55.5217 33H66.4783C66.7664 33 67 33.2336 67 33.5217V40.4783C67 40.7664 66.7664 41 66.4783 41Z" stroke="#9C9A9A" stroke-width="0.521739" stroke-linecap="round"/>
<rect x="44.334" y="9" width="33.3333" height="17.3333" rx="2" fill="#D8D8D8"/>
<path d="M66.7913 22C66.9066 22 67 21.9066 67 21.7913V21.7913C67 21.7323 66.975 21.676 66.9312 21.6364L64.4713 19.4153C64.2762 19.2391 63.9805 19.2356 63.7813 19.4071L62.7484 20.2959C62.5616 20.4567 62.2877 20.4648 62.0917 20.3153L59.3844 18.2506C59.1919 18.1038 58.9236 18.1087 58.7366 18.2626L55.1644 21.2011C55.0603 21.2868 55 21.4145 55 21.5492V21.5492C55 21.7982 55.2018 22 55.4508 22H63.6725H66.7913Z" fill="#9C9A9A"/>
<path d="M64.492 16.8727C64.492 17.5592 63.9347 18.1155 63.247 18.1155C62.5592 18.1155 62.002 17.5592 62.002 16.8727C62.002 16.1862 62.5592 15.6299 63.247 15.6299C63.9347 15.6299 64.492 16.1862 64.492 16.8727Z" fill="#9C9A9A"/>
<path opacity="0.1" d="M64.492 16.8727C64.492 17.5592 63.9347 18.1155 63.247 18.1155C62.5592 18.1155 62.002 17.5592 62.002 16.8727C62.002 16.1862 62.5592 15.6299 63.247 15.6299C63.9347 15.6299 64.492 16.1862 64.492 16.8727Z" fill="#9C9A9A"/>
<path d="M66.4783 22H55.5217C55.2336 22 55 21.7664 55 21.4783V14.5217C55 14.2336 55.2336 14 55.5217 14H66.4783C66.7664 14 67 14.2336 67 14.5217V21.4783C67 21.7664 66.7664 22 66.4783 22Z" stroke="#9C9A9A" stroke-width="0.521739" stroke-linecap="round"/>
<rect x="79.666" y="9" width="33.3333" height="17.3333" rx="2" fill="#D8D8D8"/>
<path d="M101.791 22C101.907 22 102 21.9066 102 21.7913V21.7913C102 21.7323 101.975 21.676 101.931 21.6364L99.4713 19.4153C99.2762 19.2391 98.9805 19.2356 98.7813 19.4071L97.7484 20.2959C97.5616 20.4567 97.2877 20.4648 97.0917 20.3153L94.3844 18.2506C94.1919 18.1038 93.9236 18.1087 93.7366 18.2626L90.1644 21.2011C90.0603 21.2868 90 21.4145 90 21.5492V21.5492C90 21.7982 90.2018 22 90.4508 22H98.6725H101.791Z" fill="#9C9A9A"/>
<path d="M99.492 16.8727C99.492 17.5592 98.9347 18.1155 98.247 18.1155C97.5592 18.1155 97.002 17.5592 97.002 16.8727C97.002 16.1862 97.5592 15.6299 98.247 15.6299C98.9347 15.6299 99.492 16.1862 99.492 16.8727Z" fill="#9C9A9A"/>
<path opacity="0.1" d="M99.492 16.8727C99.492 17.5592 98.9347 18.1155 98.247 18.1155C97.5592 18.1155 97.002 17.5592 97.002 16.8727C97.002 16.1862 97.5592 15.6299 98.247 15.6299C98.9347 15.6299 99.492 16.1862 99.492 16.8727Z" fill="#9C9A9A"/>
<path d="M101.478 22H90.5217C90.2336 22 90 21.7664 90 21.4783V14.5217C90 14.2336 90.2336 14 90.5217 14H101.478C101.766 14 102 14.2336 102 14.5217V21.4783C102 21.7664 101.766 22 101.478 22Z" stroke="#9C9A9A" stroke-width="0.521739" stroke-linecap="round"/>
<rect x="79.666" y="28.333" width="33.3333" height="36.6667" rx="2" fill="#D8D8D8"/>
<path d="M101.791 51C101.907 51 102 50.9066 102 50.7913V50.7913C102 50.7323 101.975 50.676 101.931 50.6364L99.4713 48.4153C99.2762 48.2391 98.9805 48.2356 98.7813 48.4071L97.7484 49.2959C97.5616 49.4567 97.2877 49.4648 97.0917 49.3153L94.3844 47.2506C94.1919 47.1038 93.9236 47.1087 93.7366 47.2626L90.1644 50.2011C90.0603 50.2868 90 50.4145 90 50.5492V50.5492C90 50.7982 90.2018 51 90.4508 51H98.6725H101.791Z" fill="#9C9A9A"/>
<path d="M99.492 45.8727C99.492 46.5592 98.9347 47.1155 98.247 47.1155C97.5592 47.1155 97.002 46.5592 97.002 45.8727C97.002 45.1862 97.5592 44.6299 98.247 44.6299C98.9347 44.6299 99.492 45.1862 99.492 45.8727Z" fill="#9C9A9A"/>
<path opacity="0.1" d="M99.492 45.8727C99.492 46.5592 98.9347 47.1155 98.247 47.1155C97.5592 47.1155 97.002 46.5592 97.002 45.8727C97.002 45.1862 97.5592 44.6299 98.247 44.6299C98.9347 44.6299 99.492 45.1862 99.492 45.8727Z" fill="#9C9A9A"/>
<path d="M101.478 51H90.5217C90.2336 51 90 50.7664 90 50.4783V43.5217C90 43.2336 90.2336 43 90.5217 43H101.478C101.766 43 102 43.2336 102 43.5217V50.4783C102 50.7664 101.766 51 101.478 51Z" stroke="#9C9A9A" stroke-width="0.521739" stroke-linecap="round"/>
<rect x="44.334" y="47.667" width="33.3333" height="17.3333" rx="2" fill="#D8D8D8"/>
<path d="M66.7913 60C66.9066 60 67 59.9066 67 59.7913V59.7913C67 59.7323 66.975 59.676 66.9312 59.6364L64.4713 57.4153C64.2762 57.2391 63.9805 57.2356 63.7813 57.4071L62.7484 58.2959C62.5616 58.4567 62.2877 58.4648 62.0917 58.3153L59.3844 56.2506C59.1919 56.1038 58.9236 56.1087 58.7366 56.2626L55.1644 59.2011C55.0603 59.2868 55 59.4145 55 59.5492V59.5492C55 59.7982 55.2018 60 55.4508 60H63.6725H66.7913Z" fill="#9C9A9A"/>
<path d="M64.492 54.8727C64.492 55.5592 63.9347 56.1155 63.247 56.1155C62.5592 56.1155 62.002 55.5592 62.002 54.8727C62.002 54.1862 62.5592 53.6299 63.247 53.6299C63.9347 53.6299 64.492 54.1862 64.492 54.8727Z" fill="#9C9A9A"/>
<path opacity="0.1" d="M64.492 54.8727C64.492 55.5592 63.9347 56.1155 63.247 56.1155C62.5592 56.1155 62.002 55.5592 62.002 54.8727C62.002 54.1862 62.5592 53.6299 63.247 53.6299C63.9347 53.6299 64.492 54.1862 64.492 54.8727Z" fill="#9C9A9A"/>
<path d="M66.4783 60H55.5217C55.2336 60 55 59.7664 55 59.4783V52.5217C55 52.2336 55.2336 52 55.5217 52H66.4783C66.7664 52 67 52.2336 67 52.5217V59.4783C67 59.7664 66.7664 60 66.4783 60Z" stroke="#9C9A9A" stroke-width="0.521739" stroke-linecap="round"/>
</svg>
