<svg width="120" height="72" viewBox="0 0 120 72" fill="none" xmlns="http://www.w3.org/2000/svg">
<rect x="0.5" y="0.5" width="119" height="71" rx="3.5" stroke="#AFAFAF"/>
<circle cx="20" cy="18" r="8" fill="#AFAFAF"/>
<path d="M22.6666 15.6667C22.6666 17.1394 21.4727 18.3333 19.9999 18.3333C18.5272 18.3333 17.3333 17.1394 17.3333 15.6667C17.3333 14.1939 18.5272 13 19.9999 13C21.4727 13 22.6666 14.1939 22.6666 15.6667Z" fill="#757575"/>
<path d="M20 19C22.8244 19 25.1356 21.1955 25.321 23.973C23.907 25.2335 22.0432 26 20 26C17.9567 26 16.0927 25.2335 14.6787 23.973C14.864 21.1955 17.1756 19 20 19Z" fill="#757575"/>
<rect x="34" y="12" width="58" height="5" rx="2.5" fill="#A0A0A0"/>
<rect x="34" y="20" width="41" height="4" rx="2" fill="#AFAFAF"/>
<rect x="34" y="49" width="75" height="2" rx="1" fill="#AFAFAF"/>
<rect x="34" y="55" width="75" height="2" rx="1" fill="#AFAFAF"/>
<rect x="34" y="61" width="61" height="2" rx="1" fill="#AFAFAF"/>
<path d="M38.6048 29.2363C38.7745 28.9212 39.2255 28.9212 39.3952 29.2363L40.7066 31.6722C40.769 31.788 40.8789 31.8707 41.0073 31.8984L43.6451 32.4674C43.9791 32.5395 44.1137 32.9442 43.8895 33.2026L42.0489 35.3245C41.9669 35.4189 41.928 35.5433 41.9413 35.6677L42.2443 38.5013C42.2818 38.8515 41.9215 39.1071 41.6044 38.9553L39.1935 37.8012C39.0711 37.7426 38.9289 37.7426 38.8065 37.8012L36.3956 38.9553C36.0785 39.1071 35.7182 38.8515 35.7557 38.5013L36.0587 35.6677C36.072 35.5433 36.0331 35.4189 35.9511 35.3245L34.1105 33.2026C33.8863 32.9442 34.0209 32.5395 34.3549 32.4674L36.9927 31.8984C37.1211 31.8707 37.231 31.788 37.2934 31.6722L38.6048 29.2363Z" fill="#757575"/>
<path d="M50.6048 29.2363C50.7745 28.9212 51.2255 28.9212 51.3952 29.2363L52.7066 31.6722C52.769 31.788 52.8789 31.8707 53.0073 31.8984L55.6451 32.4674C55.9791 32.5395 56.1137 32.9442 55.8895 33.2026L54.0489 35.3245C53.9669 35.4189 53.928 35.5433 53.9413 35.6677L54.2443 38.5013C54.2818 38.8515 53.9215 39.1071 53.6044 38.9553L51.1935 37.8012C51.0711 37.7426 50.9289 37.7426 50.8065 37.8012L48.3956 38.9553C48.0785 39.1071 47.7182 38.8515 47.7557 38.5013L48.0587 35.6677C48.072 35.5433 48.0331 35.4189 47.9511 35.3245L46.1105 33.2026C45.8863 32.9442 46.0209 32.5395 46.3549 32.4674L48.9927 31.8984C49.1211 31.8707 49.231 31.788 49.2934 31.6722L50.6048 29.2363Z" fill="#757575"/>
<path d="M62.6048 29.2363C62.7745 28.9212 63.2255 28.9212 63.3952 29.2363L64.7066 31.6722C64.769 31.788 64.8789 31.8707 65.0073 31.8984L67.6451 32.4674C67.9791 32.5395 68.1137 32.9442 67.8895 33.2026L66.0489 35.3245C65.9669 35.4189 65.928 35.5433 65.9413 35.6677L66.2443 38.5013C66.2818 38.8515 65.9215 39.1071 65.6044 38.9553L63.1935 37.8012C63.0711 37.7426 62.9289 37.7426 62.8065 37.8012L60.3956 38.9553C60.0785 39.1071 59.7182 38.8515 59.7557 38.5013L60.0587 35.6677C60.072 35.5433 60.0331 35.4189 59.9511 35.3245L58.1105 33.2026C57.8863 32.9442 58.0209 32.5395 58.3549 32.4674L60.9927 31.8984C61.1211 31.8707 61.231 31.788 61.2934 31.6722L62.6048 29.2363Z" fill="#757575"/>
<path d="M74.6048 29.2363C74.7745 28.9212 75.2255 28.9212 75.3952 29.2363L76.7066 31.6722C76.769 31.788 76.8789 31.8707 77.0073 31.8984L79.6451 32.4674C79.9791 32.5395 80.1137 32.9442 79.8895 33.2026L78.0489 35.3245C77.9669 35.4189 77.928 35.5433 77.9413 35.6677L78.2443 38.5013C78.2818 38.8515 77.9215 39.1071 77.6044 38.9553L75.1935 37.8012C75.0711 37.7426 74.9289 37.7426 74.8065 37.8012L72.3956 38.9553C72.0785 39.1071 71.7182 38.8515 71.7557 38.5013L72.0587 35.6677C72.072 35.5433 72.0331 35.4189 71.9511 35.3245L70.1105 33.2026C69.8863 32.9442 70.0209 32.5395 70.3549 32.4674L72.9927 31.8984C73.1211 31.8707 73.231 31.788 73.2934 31.6722L74.6048 29.2363Z" fill="#757575"/>
<path d="M86.6048 29.2363C86.7745 28.9212 87.2255 28.9212 87.3952 29.2363L88.7066 31.6722C88.769 31.788 88.8789 31.8707 89.0073 31.8984L91.6451 32.4674C91.9791 32.5395 92.1137 32.9442 91.8895 33.2026L90.0489 35.3245C89.9669 35.4189 89.928 35.5433 89.9413 35.6677L90.2443 38.5013C90.2818 38.8515 89.9215 39.1071 89.6044 38.9553L87.1935 37.8012C87.0711 37.7426 86.9289 37.7426 86.8065 37.8012L84.3956 38.9553C84.0785 39.1071 83.7182 38.8515 83.7557 38.5013L84.0587 35.6677C84.072 35.5433 84.0331 35.4189 83.9511 35.3245L82.1105 33.2026C81.8863 32.9442 82.0209 32.5395 82.3549 32.4674L84.9927 31.8984C85.1211 31.8707 85.231 31.788 85.2934 31.6722L86.6048 29.2363Z" fill="#757575"/>
</svg>
