<svg width="98" height="98" viewBox="0 0 98 98" fill="none" xmlns="http://www.w3.org/2000/svg">
<g clip-path="url(#clip0_3054_19725)">
<path d="M98 0H0V98H98V0Z" fill="none"/>
<path d="M73.7781 41.7602V40.4655C73.7781 39.4585 73.9939 38.5275 74.4255 37.6723C74.865 36.8172 75.5004 36.1299 76.3316 35.6104C77.1627 35.0909 78.1777 34.8312 79.3765 34.8312C80.5993 34.8312 81.6263 35.0909 82.4574 35.6104C83.2966 36.1219 83.928 36.8052 84.3515 37.6603C84.7831 38.5075 84.9989 39.4426 84.9989 40.4655V41.7602C84.9989 42.7672 84.7831 43.6983 84.3515 44.5534C83.92 45.4086 83.2846 46.0959 82.4455 46.6154C81.6063 47.1349 80.5833 47.3946 79.3765 47.3946C78.1617 47.3946 77.1388 47.1349 76.3076 46.6154C75.4764 46.0959 74.8451 45.4086 74.4135 44.5534C73.9899 43.6983 73.7781 42.7672 73.7781 41.7602ZM77.6023 40.4655V41.7602C77.6023 42.2717 77.7262 42.7632 77.9739 43.2348C78.2297 43.7063 78.6972 43.9421 79.3765 43.9421C80.0718 43.9421 80.5394 43.7143 80.7791 43.2587C81.0189 42.7952 81.1388 42.2957 81.1388 41.7602V40.4655C81.1388 39.9301 81.0229 39.4266 80.7911 38.9551C80.5673 38.4755 80.0958 38.2358 79.3765 38.2358C78.7052 38.2358 78.2417 38.4755 77.9859 38.9551C77.7302 39.4266 77.6023 39.9301 77.6023 40.4655ZM61.0469 27.7103V26.4156C61.0469 25.3926 61.2667 24.4576 61.7062 23.6104C62.1538 22.7553 62.7931 22.072 63.6243 21.5605C64.4555 21.041 65.4625 20.7812 66.6453 20.7812C67.868 20.7812 68.895 21.041 69.7262 21.5605C70.5653 22.072 71.2007 22.7553 71.6323 23.6104C72.0638 24.4576 72.2796 25.3926 72.2796 26.4156V27.7103C72.2796 28.7333 72.0598 29.6684 71.6203 30.5155C71.1887 31.3627 70.5534 32.038 69.7142 32.5415C68.875 33.045 67.8521 33.2967 66.6453 33.2967C65.4385 33.2967 64.4155 33.041 63.5763 32.5295C62.7452 32.018 62.1138 31.3387 61.6822 30.4915C61.2587 29.6444 61.0469 28.7173 61.0469 27.7103ZM64.907 26.4156V27.7103C64.907 28.2458 65.0309 28.7453 65.2786 29.2088C65.5344 29.6644 65.9899 29.8921 66.6453 29.8921C67.3486 29.8921 67.8161 29.6644 68.0479 29.2088C68.2876 28.7453 68.4075 28.2458 68.4075 27.7103V26.4156C68.4075 25.8801 68.2956 25.3766 68.0718 24.9051C67.8481 24.4256 67.3725 24.1858 66.6453 24.1858C65.9739 24.1858 65.5144 24.4296 65.2666 24.9171C65.0269 25.4046 64.907 25.9041 64.907 26.4156ZM62.8571 46.3636L79.7362 21.8122H83.0089L66.1298 46.3636H62.8571Z" fill="#FF0048"/>
<path d="M46.2486 46.967C44.1068 46.967 42.2606 46.4595 40.7102 45.4445C39.1597 44.4215 37.9649 42.955 37.1258 41.0449C36.2866 39.1268 35.871 36.8211 35.879 34.1278C35.887 31.4345 36.3066 29.1488 37.1378 27.2707C37.9769 25.3846 39.1677 23.95 40.7102 22.967C42.2606 21.976 44.1068 21.4805 46.2486 21.4805C48.3905 21.4805 50.2366 21.976 51.7871 22.967C53.3455 23.95 54.5443 25.3846 55.3835 27.2707C56.2226 29.1568 56.6382 31.4425 56.6302 34.1278C56.6302 36.8291 56.2107 39.1388 55.3715 41.0569C54.5323 42.9749 53.3375 44.4415 51.7871 45.4565C50.2446 46.4635 48.3985 46.967 46.2486 46.967ZM46.2486 42.1118C47.5274 42.1118 48.5623 41.4605 49.3535 40.1578C50.1447 38.8471 50.5363 36.8371 50.5284 34.1278C50.5284 32.3536 50.3485 30.891 49.9889 29.7402C49.6293 28.5814 49.1298 27.7182 48.4904 27.1508C47.851 26.5834 47.1038 26.2996 46.2486 26.2996C44.9779 26.2996 43.9509 26.943 43.1677 28.2297C42.3845 29.5084 41.9889 31.4745 41.9809 34.1278C41.9729 35.926 42.1447 37.4165 42.4964 38.5993C42.856 39.7821 43.3595 40.6653 44.0069 41.2487C44.6542 41.8241 45.4015 42.1118 46.2486 42.1118Z" fill="#FF0048"/>
<path d="M23.224 46.7032C21.8813 46.7032 20.5946 46.4874 19.3638 46.0559C18.1331 45.6163 17.0382 44.921 16.0791 43.97C15.1201 43.0109 14.3648 41.7562 13.8134 40.2057C13.262 38.6473 12.9902 36.7492 12.9982 34.5114C13.0062 32.4894 13.254 30.6753 13.7415 29.0689C14.229 27.4545 14.9243 26.0839 15.8274 24.957C16.7385 23.8301 17.8254 22.971 19.0881 22.3796C20.3588 21.7802 21.7774 21.4805 23.3439 21.4805C25.0621 21.4805 26.5766 21.8161 27.8873 22.4875C29.206 23.1508 30.2609 24.0459 31.0521 25.1728C31.8434 26.2917 32.3109 27.5384 32.4547 28.913H26.6166C26.4408 28.1378 26.0531 27.5504 25.4537 27.1508C24.8623 26.7432 24.159 26.5394 23.3439 26.5394C21.8414 26.5394 20.7185 27.1908 19.9752 28.4934C19.24 29.7961 18.8643 31.5384 18.8484 33.7202H19.0042C19.3399 32.9849 19.8234 32.3536 20.4548 31.8261C21.0861 31.2986 21.8094 30.895 22.6246 30.6153C23.4478 30.3276 24.3189 30.1838 25.238 30.1838C26.7085 30.1838 28.0072 30.5234 29.1341 31.2027C30.2609 31.8821 31.1441 32.8131 31.7834 33.9959C32.4228 35.1708 32.7385 36.5174 32.7305 38.0359C32.7385 39.7462 32.3389 41.2567 31.5317 42.5674C30.7245 43.8701 29.6056 44.885 28.175 45.6123C26.7524 46.3396 25.1021 46.7032 23.224 46.7032ZM23.188 42.1478C23.9153 42.1478 24.5666 41.9759 25.1421 41.6323C25.7175 41.2886 26.169 40.8211 26.4967 40.2297C26.8244 39.6383 26.9842 38.971 26.9762 38.2277C26.9842 37.4765 26.8244 36.8091 26.4967 36.2257C26.177 35.6423 25.7295 35.1788 25.154 34.8351C24.5866 34.4914 23.9353 34.3196 23.2 34.3196C22.6645 34.3196 22.165 34.4195 21.7015 34.6193C21.238 34.8191 20.8344 35.0988 20.4907 35.4585C20.1551 35.8101 19.8913 36.2257 19.6995 36.7052C19.5077 37.1768 19.4078 37.6882 19.3998 38.2397C19.4078 38.967 19.5756 39.6263 19.9033 40.2177C20.231 40.8091 20.6785 41.2806 21.246 41.6323C21.8134 41.9759 22.4607 42.1478 23.188 42.1478Z" fill="#FF0048"/>
<path d="M60.2852 77.0589V56.6758H74.1991V60.6768H65.2118V64.8569H73.3133V68.8679H65.2118V77.0589H60.2852Z" fill="#FF0048"/>
<path d="M45.0137 77.0589V56.6758H58.9276V60.6768H49.9403V64.8569H58.0418V68.8679H49.9403V77.0589H45.0137Z" fill="#FF0048"/>
<path d="M43.2545 66.8648C43.2545 69.1074 42.8232 71.0084 41.9606 72.5676C41.098 74.1269 39.9302 75.3113 38.4572 76.1208C36.9909 76.9302 35.3454 77.335 33.5207 77.335C31.6894 77.335 30.0406 76.927 28.5742 76.1108C27.1078 75.2947 25.9434 74.1103 25.0808 72.5577C24.2249 70.9984 23.7969 69.1008 23.7969 66.8648C23.7969 64.6221 24.2249 62.7211 25.0808 61.1619C25.9434 59.6026 27.1078 58.4182 28.5742 57.6087C30.0406 56.7993 31.6894 56.3945 33.5207 56.3945C35.3454 56.3945 36.9909 56.7993 38.4572 57.6087C39.9302 58.4182 41.098 59.6026 41.9606 61.1619C42.8232 62.7211 43.2545 64.6221 43.2545 66.8648ZM38.2184 66.8648C38.2184 65.5377 38.0293 64.4164 37.651 63.5007C37.2795 62.5851 36.7421 61.8917 36.0388 61.4206C35.342 60.9496 34.5027 60.714 33.5207 60.714C32.5453 60.714 31.706 60.9496 31.0027 61.4206C30.2994 61.8917 29.7586 62.5851 29.3804 63.5007C29.0088 64.4164 28.8231 65.5377 28.8231 66.8648C28.8231 68.1918 29.0088 69.3132 29.3804 70.2288C29.7586 71.1444 30.2994 71.8378 31.0027 72.3089C31.706 72.7799 32.5453 73.0155 33.5207 73.0155C34.5027 73.0155 35.342 72.7799 36.0388 72.3089C36.7421 71.8378 37.2795 71.1444 37.651 70.2288C38.0293 69.3132 38.2184 68.1918 38.2184 66.8648Z" fill="#FF0048"/>
</g>
<defs>
<clipPath id="clip0_3054_19725">
<rect width="98" height="98" fill="none"/>
</clipPath>
</defs>
</svg>
