<svg width="24" height="24" viewBox="0 0 24 24" fill="none" xmlns="http://www.w3.org/2000/svg">
  <g clip-path="url(#a)" stroke="#037FFF" stroke-width="1.5">
    <path d="M23 4a3 3 0 0 0-3-3H4a3 3 0 0 0-3 3v2a3 3 0 0 0 3 3h19V4ZM4 20a3 3 0 0 0 3 3h13a3 3 0 0 0 3-3V9H4v11Z"/>
    <path d="m15 4 2 2 2-2" stroke-linecap="square"/>
    <path d="M7 13a1 1 0 0 1 1-1h4a1 1 0 0 1 1 1v6a1 1 0 0 1-1 1H8a1 1 0 0 1-1-1v-6Z"/>
    <path d="M16 16h4M16 13h4M16 19h3" stroke-linecap="square"/>
  </g>
  <defs>
    <clipPath id="a">
      <path fill="#fff" d="M0 0h24v24H0z"/>
    </clipPath>
  </defs>
</svg>