<svg width="42" height="42" viewBox="0 0 42 42" fill="none" xmlns="http://www.w3.org/2000/svg">
<g clip-path="url(#clip0_5396_72)">
<rect width="42" height="42" fill="white"/>
<path d="M27.0174 9.85884C26.8489 9.77174 26.6848 9.67626 26.5259 9.57275C26.0636 9.26713 25.6397 8.90701 25.2634 8.50016C24.3219 7.4229 23.9703 6.33002 23.8408 5.56486H23.846C23.7378 4.92973 23.7825 4.5188 23.7893 4.5188H19.501V21.1007C19.501 21.3233 19.501 21.5434 19.4916 21.7608C19.4916 21.7878 19.489 21.8128 19.4875 21.8419C19.4875 21.8539 19.4875 21.8664 19.4849 21.8789C19.4849 21.882 19.4849 21.8851 19.4849 21.8882C19.4397 22.4832 19.2489 23.0579 18.9295 23.5619C18.61 24.0658 18.1716 24.4835 17.6528 24.7783C17.1121 25.0859 16.5006 25.2472 15.8785 25.2464C13.8806 25.2464 12.2613 23.6173 12.2613 21.6053C12.2613 19.5933 13.8806 17.9641 15.8785 17.9641C16.2568 17.9637 16.6326 18.0233 16.9922 18.1404L16.9974 13.7741C15.9058 13.6331 14.7968 13.7199 13.7403 14.0289C12.6839 14.338 11.703 14.8626 10.8594 15.5698C10.1203 16.212 9.49894 16.9782 9.02325 17.8341C8.84224 18.1462 8.15926 19.4003 8.07655 21.4357C8.02453 22.591 8.37148 23.7879 8.5369 24.2826V24.293C8.64093 24.5843 9.04406 25.5783 9.70103 26.4163C10.2308 27.0885 10.8567 27.679 11.5586 28.1687V28.1583L11.569 28.1687C13.6449 29.5794 15.9467 29.4868 15.9467 29.4868C16.3451 29.4707 17.6799 29.4868 19.1957 28.7685C20.8768 27.9721 21.8339 26.7856 21.8339 26.7856C22.4454 26.0767 22.9316 25.2687 23.2717 24.3965C23.6597 23.3764 23.7893 22.153 23.7893 21.664V12.867C23.8413 12.8982 24.5341 13.3564 24.5341 13.3564C24.5341 13.3564 25.5323 13.9963 27.0897 14.4129C28.207 14.7094 29.7124 14.7718 29.7124 14.7718V10.5148C29.185 10.572 28.1139 10.4055 27.0174 9.85884Z" fill="#141B38"/>
<path d="M21.9443 25.4563C21.2078 30.6888 23.5832 35.7298 27.7375 37.3951L27.5784 37.7282C27.4346 38.0292 27.4504 38.3822 27.6205 38.6692C27.7906 38.9562 28.0927 39.1394 28.4258 39.1578L31.3009 39.316C31.6715 39.3364 32.0228 39.1499 32.2136 38.8316C32.4027 38.516 32.4032 38.1224 32.2155 37.8066C36.3283 36.9868 39.6377 32.9779 40.3321 28.0443C41.1684 22.1025 37.9699 16.3583 32.706 15.6174C27.4422 14.8765 22.7806 19.5142 21.9443 25.4563Z" fill="#FE544F" stroke="white" stroke-width="2" stroke-linejoin="round"/>
<path fill-rule="evenodd" clip-rule="evenodd" d="M34.0206 20.4487L33.8421 24.5776L37.916 25.2708L34.5698 27.6056L36.4311 31.3148L32.5982 30.0205L30.8504 33.7897L29.5344 30.0089L25.6391 31.1706L27.5787 27.589L24.2632 25.2867L28.2565 24.5957L27.732 20.6838L31.0564 23.2531L34.0206 20.4487Z" fill="white"/>
</g>
<defs>
<clipPath id="clip0_5396_72">
<rect width="42" height="42" fill="white"/>
</clipPath>
</defs>
</svg>
