<svg width="50" height="50" viewBox="0 0 24 24" fill="none" xmlns="http://www.w3.org/2000/svg">
<path d="M3 4C3 3.44772 3.44772 3 4 3H20C20.5523 3 21 3.44772 21 4V8C21 8.55228 20.5523 9 20 9H4C3.44772 9 3 8.55228 3 8V4Z" stroke="#037FFF" stroke-width="1.5" stroke-linejoin="round"/>
<path d="M3 12.5C3 11.9477 3.44772 11.5 4 11.5H20C20.5523 11.5 21 11.9477 21 12.5V20C21 20.5523 20.5523 21 20 21H4C3.44772 21 3 20.5523 3 20V12.5Z" stroke="#037FFF" stroke-width="1.5" stroke-linejoin="round"/>
<path d="M6 6L11 6" stroke="#037FFF" stroke-linecap="round" stroke-linejoin="round"/>
<path d="M6 14.5L11 14.5" stroke="#037FFF" stroke-linecap="round" stroke-linejoin="round"/>
<path d="M16.5 4.5V7.5" stroke="#037FFF" stroke-linecap="round"/>
<path d="M15.4395 13.4393L17.5608 15.5607" stroke="#037FFF" stroke-linecap="round"/>
<path d="M15 6L18 6" stroke="#037FFF" stroke-linecap="round"/>
<path d="M15.4395 15.5607L17.5608 13.4393" stroke="#037FFF" stroke-linecap="round"/>
</svg>
