<svg width="32" height="32" viewBox="0 0 32 32" fill="none" xmlns="http://www.w3.org/2000/svg">
<path d="M13.9993 5.99967C13.9993 6.36786 13.7009 6.66634 13.3327 6.66634C12.9645 6.66634 12.666 6.36786 12.666 5.99967C12.666 5.63148 12.9645 5.33301 13.3327 5.33301C13.7009 5.33301 13.9993 5.63148 13.9993 5.99967Z" stroke="#1F66FF" stroke-width="2"/>
<path d="M26.6673 21.9997C26.6673 22.3679 26.3688 22.6663 26.0007 22.6663C25.6325 22.6663 25.334 22.3679 25.334 21.9997C25.334 21.6315 25.6325 21.333 26.0007 21.333C26.3688 21.333 26.6673 21.6315 26.6673 21.9997Z" stroke="#1F66FF" stroke-width="2"/>
<path d="M25.666 9.33301L27.666 10.6663" stroke="#1F66FF" stroke-width="2" stroke-linecap="round" stroke-linejoin="round"/>
<path d="M1.33398 19.0775C1.33398 18.2775 2.0636 17.6289 2.96364 17.6289H29.0381C29.9381 17.6289 30.6677 18.2775 30.6677 19.0775V29.2175C30.6677 30.0176 29.9381 30.6661 29.0381 30.6661H2.96364C2.06361 30.6661 1.33398 30.0176 1.33398 29.2175V19.0775Z" stroke="#1F66FF" stroke-width="2"/>
<path d="M5.4082 26.5923L10.53 23.333L15.6517 26.5923L19.493 24.4194L23.3344 26.5923" stroke="#1F66FF" stroke-width="2" stroke-linecap="round" stroke-linejoin="round"/>
<path d="M1.33398 2.66634C1.33398 1.92996 1.93094 1.33301 2.66732 1.33301H16.2972C17.0335 1.33301 17.6305 1.92996 17.6305 2.66634V12.6295C17.6305 13.3659 17.0335 13.9628 16.2972 13.9628H2.66732C1.93094 13.9628 1.33398 13.3659 1.33398 12.6295V2.66634Z" stroke="#1F66FF" stroke-width="2" stroke-linejoin="round"/>
<path d="M22.5176 2.66634C22.5176 1.92996 23.1145 1.33301 23.8509 1.33301H29.3325C30.0689 1.33301 30.6658 1.92996 30.6658 2.66634V12.6295C30.6658 13.3659 30.0689 13.9628 29.3325 13.9628H23.8509C23.1145 13.9628 22.5176 13.3659 22.5176 12.6295V2.66634Z" stroke="#1F66FF" stroke-width="2" stroke-linejoin="round"/>
<path d="M4.5918 10.7033L7.8511 8.25879L12.7401 10.7033" stroke="#1F66FF" stroke-width="2" stroke-linecap="round" stroke-linejoin="round"/>
</svg>
